# xmcd
#
# Track frame offsets: 
#        150
#        19129
#        39330
#        58528
#        74874
#        92571
#        109630
#        129270
#        145360
#        165063
#        185217
#        202395
#
# Disc length: 2910 seconds
#
# Revision: 0
# Processed by: cddbd v1.5.2PL0 Copyright (c) Steve Scherf et al.
# Submitted via: ExactAudioCopy v0.95b4
#
DISCID=ac0b5c0c
DTITLE=Alejandro Fernandez - Viento a Favor
DYEAR=2007
DGENRE=Ballad
TTITLE0=Te Voy A Perder
TTITLE1=A Manos Llenas
TTITLE2=Tanto Amar
TTITLE3=Amenaza De Lluvia
TTITLE4=Eres
TTITLE5=No Se Me Hace Facil
TTITLE6=Estabas Ahi
TTITLE7=Sin Consideracion
TTITLE8=Solitario Y Solo
TTITLE9=Sueño Contigo
TTITLE10=Amor Gitano
TTITLE11=Cuando Estamo Juntos
EXTD=
EXTT0=
EXTT1=
EXTT2=
EXTT3=
EXTT4=
EXTT5=
EXTT6=
EXTT7=
EXTT8=
EXTT9=
EXTT10=
EXTT11=
PLAYORDER=
